HIERARCHY
ROOT Hips
{
  OFFSET 30.1817 79.0895 -133.674
  CHANNELS 6 Xposition Yposition Zposition Zrotation Xrotation Yrotation
  JOINT RightUpLeg
  {
    OFFSET -8.9458 -8.66707 0.101652
    CHANNELS 3 Zrotation Xrotation Yrotation
    JOINT RightLeg
    {
      OFFSET 0 -44.4227 1.3727
      CHANNELS 3 Zrotation Xrotation Yrotation
      JOINT RightFoot
      {
        OFFSET 0.253549 -42.0924 -1.46059
        CHANNELS 3 Zrotation Xrotation Yrotation
        JOINT RightToes
        {
          OFFSET 0.04 -4.41509 8.4991
          CHANNELS 3 Zrotation Xrotation Yrotation
          End Site
          {
            OFFSET -0.08 -0.137448 9.77979
          }
        }
      }
    }
  }
  JOINT Spine
  {
    OFFSET 0 11.8905 0
    CHANNELS 3 Zrotation Xrotation Yrotation
    JOINT Spine1
    {
      OFFSET 0 25.6574 0.127663
      CHANNELS 3 Zrotation Xrotation Yrotation
      JOINT HEad
      {
        OFFSET 0 8.73416 0.011341
        CHANNELS 3 Zrotation Xrotation Yrotation
        End Site
        {
          OFFSET -0.29 12.7742 2.51395
        }
      }
      JOINT LeftShoulder1
      {
        OFFSET 8.99 -0.362252 -0.22
        CHANNELS 3 Zrotation Xrotation Yrotation
        JOINT LeftArm
        {
          OFFSET 10.2827 -0.00338 0.322123
          CHANNELS 3 Zrotation Xrotation Yrotation
          JOINT LeftForeArm
          {
            OFFSET 32.7669 0.099144 -1.42434
            CHANNELS 3 Zrotation Xrotation Yrotation
            JOINT LeftHand
            {
              OFFSET 27.5643 0.085362 1.02216
              CHANNELS 3 Zrotation Xrotation Yrotation
              End Site
              {
                OFFSET 16.7443 -0.6 1.50291
              }
            }
          }
        }
      }
      JOINT RightShoulder
      {
        OFFSET -8.99 -0.362252 -0.22
        CHANNELS 3 Zrotation Xrotation Yrotation
        JOINT RightArm
        {
          OFFSET -10.2827 -0.00338 0.322123
          CHANNELS 3 Zrotation Xrotation Yrotation
          JOINT RightForeArm
          {
            OFFSET -32.8971 0.099144 -1.42434
            CHANNELS 3 Zrotation Xrotation Yrotation
            JOINT RightHand
            {
              OFFSET -27.4921 0.085362 1.02216
              CHANNELS 3 Zrotation Xrotation Yrotation
              End Site
              {
                OFFSET -16.6312 -0.6 1.50291
              }
            }
          }
        }
      }
    }
  }
  JOINT LeftUpLeg
  {
    OFFSET 8.9458 -8.66707 0.101652
    CHANNELS 3 Zrotation Xrotation Yrotation
    JOINT LeftLeg
    {
      OFFSET 0 -44.4227 1.3727
      CHANNELS 3 Zrotation Xrotation Yrotation
      JOINT LeftFoot
      {
        OFFSET -0.253549 -42.0924 -1.46059
        CHANNELS 3 Zrotation Xrotation Yrotation
        JOINT LeftToes
        {
          OFFSET -0.04 -4.41509 8.4991
          CHANNELS 3 Zrotation Xrotation Yrotation
          End Site
          {
            OFFSET 0.08 -0.047448 9.77979
          }
        }
      }
    }
  }
}
MOTION
Frames:	7
Frame Time:	0.0166667
44.5513 95.4152 -121.492 -0.274774 0.729082 -17.6365 -10.7626 -13.1982 -9.2905 -23.5066 50.0724 17.318 25.2477 0.181693 1.62171 0.0462049 0.000533403 0.662642 -1.17938 17.201 5.21515 -4.72859e-007 0.0143599 -4.76109e-009 -16.5354 7.98525 25.0713 -7.95139e-016 -3.18055e-015 -0 170.965 -25.3643 -168.33 -125.785 35.2949 -2.08182 6.77544 29.18 -1.91421 7.94453 6.24919 7.93864 128.198 -17.6443 99.8499 102.696 50.3773 12.463 -5.17617 30.4444 1.16341 -12.3094 -35.313 5.88062 38.5226 34.6333 -33.0635 30.4452 -2.80454 1.6126 -3.36951e-008 1.56033e-007 -4.88727e-009 
43.4137 93.8695 -122.384 -0.161764 0.469312 -17.636 -9.89991 -15.007 -9.9898 -23.4838 55.8886 16.2238 15.7488 -0.295051 0.705046 0.0462049 0.000533403 0.662642 -1.30323 17.9214 5.61313 -0.0120495 -0.0178982 0.10236 -16.1197 7.3536 24.4011 -2.38542e-015 -9.54166e-015 3.18055e-015 171.033 -24.0118 -167.982 -126.905 34.692 -1.70994 6.92681 29.138 -1.8783 7.74104 5.86696 7.4455 128.501 -18.159 100.518 103.952 50.1763 12.2543 -5.27 30.5574 1.07693 -10.0596 -36.2778 6.05598 36.1085 36.6661 -32.7554 36.168 -2.06076 1.63105 -3.36952e-008 1.56033e-007 -4.88727e-009 
41.7475 91.762 -123.714 -0.118477 0.457801 -17.4105 -10.5913 -17.1876 -10.9234 -22.7126 62.6263 14.1239 14.0224 0.0486697 1.01348 0.0462049 0.000533403 0.662642 -1.43026 18.5212 6.03906 -0.0469282 -0.111287 0.398589 -15.32 6.97456 23.7361 8.82781e-032 3.18055e-015 -1.59028e-015 172.058 -21.848 -167.545 -127.689 33.9391 -1.35775 7.02608 29.2781 -1.75728 7.5085 5.51819 6.92587 129.038 -18.31 101.512 105.114 49.8378 11.9626 -5.31862 30.7242 1.02069 -7.19595 -38.3656 5.54475 33.7541 40.2344 -32.8847 41.5877 -1.47664 1.8956 -3.36952e-008 1.56033e-007 -4.88727e-009 
39.476 89.0454 -125.585 -0.276755 0.929111 -16.863 -11.3706 -20.6819 -13.0171 -21.8532 71.2574 11.3518 8.05891 -0.775069 1.33196 0.0462049 0.000533403 0.662642 -1.5617 18.9909 6.48956 -0.102735 -0.260719 0.872319 -14.1402 6.82573 23.1074 0 0 -0 173.944 -19.0195 -167.129 -128.103 33.0815 -1.05797 7.04525 29.5165 -1.62497 7.27175 5.16907 6.39321 129.742 -18.0955 102.735 106.142 49.3853 11.5995 -5.44732 31.0011 1.01509 -3.48994 -41.8354 4.09096 31.1485 45.3549 -33.0789 46.5685 -0.994894 2.44574 -3.36952e-008 1.56033e-007 -4.88727e-009 
36.6969 85.8255 -127.932 -0.61068 1.83081 -16.0299 -13.0064 -24.74 -16.0757 -15.0251 80.8954 1.66004 1.33302 -2.22078 1.97177 0.0462049 0.000533403 0.662642 -1.70659 19.3255 6.9538 -0.177571 -0.461089 1.50709 -12.6003 6.90553 22.5437 3.97569e-016 6.36111e-015 -0 176.605 -15.7128 -166.815 -128.134 32.1691 -0.844155 6.99546 29.9187 -1.43879 7.05255 4.79985 5.85574 130.542 -17.5172 104.085 106.994 48.8399 11.1903 -5.59401 31.3294 1.03957 1.19555 -46.4159 1.84012 27.207 51.5724 -32.2842 51.0995 -0.512203 3.1416 -3.36952e-008 1.56033e-007 -4.88727e-009 
33.6263 82.3913 -130.61 -1.10022 3.1346 -14.966 -15.6294 -28.6582 -19.6765 53.7883 88.0704 -69.381 -2.04275 -4.56431 3.12616 0.0462049 0.000533403 0.662642 -1.82227 19.1289 7.1786 -0.269539 -0.707292 2.28639 -10.7681 7.54337 22.3865 -3.97569e-016 3.18055e-015 2.38542e-015 179.931 -12.5052 -166.897 -127.791 31.2532 -0.743206 6.86916 30.4256 -1.26383 6.87014 4.79733 5.59347 131.366 -16.6247 105.509 107.6 48.2215 10.7699 -5.81381 31.7458 1.10579 5.99469 -51.5917 -0.605982 22.2043 57.298 -30.4042 55.1616 0.162654 3.64663 -3.36952e-008 1.56033e-007 -4.88728e-009 
30.1817 79.0895 -133.674 -1.68895 4.79479 -13.7428 -19.2682 -31.7373 -23.4071 130.69 81.3314 -147.686 -5.49936 -7.77283 3.90103 0.0462049 0.000533403 0.662642 -1.8978 18.4596 7.19448 -0.376749 -0.99422 3.19368 -8.76302 8.75762 22.6044 1.32417e-031 -6.36111e-015 1.19271e-015 -176.171 -9.71114 -167.403 -127.098 30.4071 -0.904028 6.61039 31.3683 -0.827048 6.72808 4.85652 5.56294 132.024 -15.5529 106.726 107.826 47.5576 10.4978 -6.01591 32.318 1.172 11.8041 -56.4762 -3.59062 13.1988 61.4749 -24.3741 58.2952 0.954059 4.07023 -3.36952e-008 1.56033e-007 -4.88727e-009 
